<svg width="99" height="100" viewBox="0 0 99 100" fill="none" xmlns="http://www.w3.org/2000/svg">
<path d="M71.2406 17.8833L69.6373 10.2331C68.8415 6.45967 65.1735 4.03552 61.4369 4.81363L7.29855 16.1598C3.564 16.9475 1.17799 20.6405 1.9643 24.4159L8.26973 54.5022C9.01215 57.9924 12.2442 60.3641 15.7569 59.9977L23.6413 72.2757C25.7237 75.5175 30.0078 76.452 33.2111 74.3649L62.3902 55.3402C61.4092 61.5943 63.396 67.9631 67.7546 72.5399L68.7955 73.6334L71.5797 86.9179C71.738 87.6734 72.4719 88.1585 73.2197 88.0018L97.582 82.896C98.3298 82.7392 98.8072 82.0003 98.6489 81.2447L89.1882 36.1034C88.1842 31.3767 85.3711 27.2358 81.3609 24.5846L71.2406 17.8833ZM72.9547 26.0619L79.3205 35.9754C80.5687 37.9216 80.0229 40.5133 78.1007 41.7659L75.9448 43.1742C76.139 42.2334 76.1379 41.2607 75.9427 40.3194L72.9547 26.0619ZM10.9766 53.9349L4.67122 23.8486C4.19645 21.5832 5.62976 19.3648 7.87177 18.895L62.0102 7.54874C64.2522 7.07887 66.4556 8.53509 66.9304 10.8005L68.7521 19.4927L68.7402 19.4951L68.7586 19.5238L73.2358 40.8867C73.2753 41.1276 73.2941 41.3706 73.2922 41.6144L58.2689 31.6845C54.9056 29.5177 50.4584 30.4276 48.2171 33.739C45.9755 37.0523 46.7467 41.5733 49.9618 43.9582L56.4695 48.6835L15.8969 57.1866C13.6549 57.6565 11.4514 56.2003 10.9766 53.9349ZM29.7489 57.1388L20.9091 62.8999L18.7006 59.4543L29.7489 57.1388ZM31.7026 72.016C29.7809 73.2696 27.2101 72.708 25.9607 70.7628L22.42 65.2418L37.2579 55.5651L37.2562 55.5569L59.5219 50.8904L61.6872 52.4596L31.7026 72.016ZM95.6553 80.4445L74 84.983L71.7071 74.0425L93.3624 69.504L95.6553 80.4445ZM92.7892 66.7689L70.5316 71.4336L69.7459 70.6089C65.329 65.9719 63.7872 59.269 65.7325 53.1665C65.9167 52.5889 65.7091 51.9558 65.2193 51.6008L51.5657 41.6994C49.5285 40.2169 49.0289 37.3696 50.4405 35.2853C51.8527 33.2005 54.6586 32.6417 56.7613 34.0255L82.8952 51.2927L84.4037 48.9579L78.3355 44.9474L79.6095 44.1094C82.8093 42.0208 83.7172 37.7032 81.6383 34.4614L74.5381 23.402L79.853 26.9225C83.2479 29.1655 85.6315 32.6697 86.4813 36.6707L92.7892 66.7689Z" fill="url(#paint0_linear)"/>
<path d="M19.9716 33.4896C21.9151 33.0823 23.1569 31.1603 22.7454 29.1965L21.3696 22.6322C20.9581 20.6684 19.049 19.4067 17.1054 19.814L10.6088 21.1756C8.66527 21.5829 7.42346 23.5049 7.83503 25.4687L9.21076 32.033C9.62233 33.9968 11.5314 35.2585 13.4749 34.8512L19.9716 33.4896ZM11.9177 31.4657L11.5164 29.5511L14.2233 28.9838L13.6501 26.2487L10.9432 26.816L10.542 24.9014C10.447 24.4484 10.7337 24.0047 11.1821 23.9107L17.6787 22.5492C18.127 22.4552 18.5678 22.7465 18.6627 23.1995L19.064 25.1141L16.357 25.6814L16.9303 28.4165L19.6372 27.8492L20.0384 29.7638C20.1334 30.2168 19.8467 30.6605 19.3983 30.7545L12.9017 32.1161C12.4534 32.21 12.0126 31.9187 11.9177 31.4657Z" fill="url(#paint1_linear)"/>
<path d="M12.1719 39.4082L17.5857 38.2736L18.1589 41.0087L12.7451 42.1433L12.1719 39.4082Z" fill="url(#paint2_linear)"/>
<path d="M13.8906 47.6143L19.3045 46.4796L19.8777 49.2147L14.4638 50.3494L13.8906 47.6143Z" fill="url(#paint3_linear)"/>
<path d="M38.25 42.5078L43.6638 41.3732L44.2371 44.1083L38.8232 45.2429L38.25 42.5078Z" fill="url(#paint4_linear)"/>
<path d="M20.293 37.707L25.7068 36.5724L26.28 39.3075L20.8662 40.4421L20.293 37.707Z" fill="url(#paint5_linear)"/>
<path d="M28.4102 36.0068L33.824 34.8722L34.3972 37.6073L28.9834 38.742L28.4102 36.0068Z" fill="url(#paint6_linear)"/>
<path d="M36.5352 34.3027L41.949 33.1681L42.5222 35.9032L37.1084 37.0379L36.5352 34.3027Z" fill="url(#paint7_linear)"/>
<path d="M58.8086 12.5029L61.5155 11.9356L62.3753 16.0383L59.6684 16.6056L58.8086 12.5029Z" fill="url(#paint8_linear)"/>
<path d="M53.3945 13.6367L56.1015 13.0694L56.9613 17.1721L54.2544 17.7394L53.3945 13.6367Z" fill="url(#paint9_linear)"/>
<path d="M47.9844 14.7715L50.6913 14.2042L51.5511 18.3068L48.8442 18.8742L47.9844 14.7715Z" fill="url(#paint10_linear)"/>
<path d="M42.5664 15.9072L45.2733 15.3399L46.1331 19.4426L43.4262 20.0099L42.5664 15.9072Z" fill="url(#paint11_linear)"/>
<path d="M74.9883 76.2109L77.6952 75.6436L78.2684 78.3787L75.5615 78.9461L74.9883 76.2109Z" fill="url(#paint12_linear)"/>
<defs>
<linearGradient id="paint0_linear" x1="41.135" y1="9.06846" x2="58.3317" y2="91.122" gradientUnits="userSpaceOnUse">
<stop stop-color="#E93E3A"/>
<stop offset="0.323362" stop-color="#ED683C"/>
<stop offset="0.649336" stop-color="#F3903F"/>
<stop offset="0.95321" stop-color="#FDC70C"/>
</linearGradient>
<linearGradient id="paint1_linear" x1="13.8571" y1="20.4948" x2="16.7232" y2="34.1704" gradientUnits="userSpaceOnUse">
<stop stop-color="#E93E3A"/>
<stop offset="0.323362" stop-color="#ED683C"/>
<stop offset="0.649336" stop-color="#F3903F"/>
<stop offset="0.95321" stop-color="#FDC70C"/>
</linearGradient>
<linearGradient id="paint2_linear" x1="14.8788" y1="38.8409" x2="15.452" y2="41.576" gradientUnits="userSpaceOnUse">
<stop stop-color="#E93E3A"/>
<stop offset="0.323362" stop-color="#ED683C"/>
<stop offset="0.649336" stop-color="#F3903F"/>
<stop offset="0.95321" stop-color="#FDC70C"/>
</linearGradient>
<linearGradient id="paint3_linear" x1="16.5975" y1="47.0469" x2="17.1708" y2="49.7821" gradientUnits="userSpaceOnUse">
<stop stop-color="#E93E3A"/>
<stop offset="0.323362" stop-color="#ED683C"/>
<stop offset="0.649336" stop-color="#F3903F"/>
<stop offset="0.95321" stop-color="#FDC70C"/>
</linearGradient>
<linearGradient id="paint4_linear" x1="40.9569" y1="41.9405" x2="41.5301" y2="44.6756" gradientUnits="userSpaceOnUse">
<stop stop-color="#E93E3A"/>
<stop offset="0.323362" stop-color="#ED683C"/>
<stop offset="0.649336" stop-color="#F3903F"/>
<stop offset="0.95321" stop-color="#FDC70C"/>
</linearGradient>
<linearGradient id="paint5_linear" x1="22.9999" y1="37.1397" x2="23.5731" y2="39.8748" gradientUnits="userSpaceOnUse">
<stop stop-color="#E93E3A"/>
<stop offset="0.323362" stop-color="#ED683C"/>
<stop offset="0.649336" stop-color="#F3903F"/>
<stop offset="0.95321" stop-color="#FDC70C"/>
</linearGradient>
<linearGradient id="paint6_linear" x1="31.1171" y1="35.4395" x2="31.6903" y2="38.1746" gradientUnits="userSpaceOnUse">
<stop stop-color="#E93E3A"/>
<stop offset="0.323362" stop-color="#ED683C"/>
<stop offset="0.649336" stop-color="#F3903F"/>
<stop offset="0.95321" stop-color="#FDC70C"/>
</linearGradient>
<linearGradient id="paint7_linear" x1="39.2421" y1="33.7354" x2="39.8153" y2="36.4705" gradientUnits="userSpaceOnUse">
<stop stop-color="#E93E3A"/>
<stop offset="0.323362" stop-color="#ED683C"/>
<stop offset="0.649336" stop-color="#F3903F"/>
<stop offset="0.95321" stop-color="#FDC70C"/>
</linearGradient>
<linearGradient id="paint8_linear" x1="60.1621" y1="12.2193" x2="61.0219" y2="16.3219" gradientUnits="userSpaceOnUse">
<stop stop-color="#E93E3A"/>
<stop offset="0.323362" stop-color="#ED683C"/>
<stop offset="0.649336" stop-color="#F3903F"/>
<stop offset="0.95321" stop-color="#FDC70C"/>
</linearGradient>
<linearGradient id="paint9_linear" x1="54.748" y1="13.3531" x2="55.6078" y2="17.4557" gradientUnits="userSpaceOnUse">
<stop stop-color="#E93E3A"/>
<stop offset="0.323362" stop-color="#ED683C"/>
<stop offset="0.649336" stop-color="#F3903F"/>
<stop offset="0.95321" stop-color="#FDC70C"/>
</linearGradient>
<linearGradient id="paint10_linear" x1="49.3378" y1="14.4878" x2="50.1977" y2="18.5905" gradientUnits="userSpaceOnUse">
<stop stop-color="#E93E3A"/>
<stop offset="0.323362" stop-color="#ED683C"/>
<stop offset="0.649336" stop-color="#F3903F"/>
<stop offset="0.95321" stop-color="#FDC70C"/>
</linearGradient>
<linearGradient id="paint11_linear" x1="43.9199" y1="15.6236" x2="44.7797" y2="19.7262" gradientUnits="userSpaceOnUse">
<stop stop-color="#E93E3A"/>
<stop offset="0.323362" stop-color="#ED683C"/>
<stop offset="0.649336" stop-color="#F3903F"/>
<stop offset="0.95321" stop-color="#FDC70C"/>
</linearGradient>
<linearGradient id="paint12_linear" x1="76.3417" y1="75.9273" x2="76.915" y2="78.6624" gradientUnits="userSpaceOnUse">
<stop stop-color="#E93E3A"/>
<stop offset="0.323362" stop-color="#ED683C"/>
<stop offset="0.649336" stop-color="#F3903F"/>
<stop offset="0.95321" stop-color="#FDC70C"/>
</linearGradient>
</defs>
</svg>
