<svg width="83" height="80" viewBox="0 0 83 80" fill="none" xmlns="http://www.w3.org/2000/svg">
<path d="M8.50391 33C7.67546 33 7.00391 33.7648 7.00391 34.7083V72.2917C7.00391 73.2352 7.67546 74 8.50391 74C9.33236 74 10.0039 73.2352 10.0039 72.2917V34.7083C10.0039 33.7648 9.33236 33 8.50391 33Z" fill="url(#paint0_linear)"/>
<path d="M79.714 29.5654C79.6897 29.3506 79.6234 29.1371 79.509 28.9381L64.5398 2.9331C64.3258 2.55912 63.9708 2.28757 63.5558 2.17538C63.1408 2.06318 62.6982 2.12172 62.3254 2.33798L51.7202 8.47946L43.0684 3.46969L37.4529 0.217646C37.0801 0.00138527 36.6375 -0.0555255 36.2225 0.055044C35.8075 0.167239 35.4525 0.438785 35.2385 0.81277L20.378 26.6307L18.0698 27.9673H8.10547C3.63611 27.9673 0 31.6145 0 36.0974V71.8699C0 76.3528 3.63611 80 8.10547 80H74.8945C79.3639 80 83 76.3528 83 71.8699V36.0974C83 33.4238 81.7062 31.048 79.714 29.5654ZM74.4074 26.5803L75.2108 27.9755C75.1058 27.9714 75.0005 27.9673 74.8945 27.9673H73.5821C73.7774 27.4673 74.054 26.9972 74.4074 26.5803ZM62.5426 5.96726L64.0243 8.54288C63.7341 8.59816 63.4391 8.6258 63.1424 8.6258C61.9687 8.6258 60.8486 8.19653 59.978 7.45181L62.5426 5.96726ZM37.2357 3.84693L39.8003 5.33148C38.9298 6.07783 37.8096 6.50547 36.6359 6.50547C36.3392 6.50547 36.0442 6.47783 35.754 6.42254L37.2357 3.84693ZM34.0746 9.338C34.8981 9.61442 35.7638 9.75751 36.6359 9.75751C38.9751 9.75751 41.1847 8.73637 42.7085 7.01604L48.478 10.3575L25.9934 23.3787L34.0746 9.338ZM57.0698 9.13637C58.5936 10.8567 60.8032 11.8778 63.1424 11.8778C64.0146 11.8778 64.8802 11.7348 65.7037 11.4583L72.7296 23.6632C71.4324 24.8148 70.5682 26.3328 70.202 27.9673H51.5615C51.4514 27.7439 51.3358 27.5216 51.2095 27.3023C49.2869 23.9641 45.9491 21.8893 42.4994 21.8893C41.0907 21.8893 39.7176 22.2535 38.5261 22.9429C36.6662 24.0202 35.3526 25.7868 34.7642 27.9673H24.5537L57.0698 9.13637ZM47.7516 27.9673H38.1941C38.6206 27.0184 39.2887 26.2566 40.1472 25.7592C40.8572 25.3494 41.6483 25.1413 42.4994 25.1413C44.427 25.1413 46.3925 26.2236 47.7516 27.9673ZM79.7578 62.1138H68.4102C65.7285 62.1138 63.5469 59.9255 63.5469 57.2357V50.7316C63.5469 48.0419 65.7285 45.8536 68.4102 45.8536H79.7578V62.1138ZM79.7578 42.6015H76.5156V36.0974C76.5156 35.1994 75.7899 34.4714 74.8945 34.4714C73.9992 34.4714 73.2734 35.1994 73.2734 36.0974V42.6015H68.4102C63.9408 42.6015 60.3047 46.2487 60.3047 50.7316V57.2357C60.3047 61.7186 63.9408 65.3658 68.4102 65.3658H73.2734V71.8699C73.2734 72.768 73.9992 73.4959 74.8945 73.4959C75.7899 73.4959 76.5156 72.768 76.5156 71.8699V65.3658H79.7578V71.8699C79.7578 74.5597 77.5761 76.748 74.8945 76.748H8.10547C5.42386 76.748 3.24219 74.5597 3.24219 71.8699V36.0974C3.24219 33.4077 5.42386 31.2194 8.10547 31.2194H74.8945C77.5761 31.2194 79.7578 33.4077 79.7578 36.0974V42.6015Z" fill="url(#paint1_linear)"/>
<path d="M72.5 49C69.4673 49 67 51.243 67 54C67 56.757 69.4673 59 72.5 59C75.5327 59 78 56.757 78 54C78 51.243 75.5327 49 72.5 49ZM72.5 55.6667C71.4891 55.6667 70.6667 54.919 70.6667 54C70.6667 53.081 71.4891 52.3333 72.5 52.3333C73.5109 52.3333 74.3333 53.081 74.3333 54C74.3333 54.919 73.5109 55.6667 72.5 55.6667Z" fill="url(#paint2_linear)"/>
<defs>
<linearGradient id="paint0_linear" x1="8.50391" y1="33" x2="8.50391" y2="74" gradientUnits="userSpaceOnUse">
<stop stop-color="#E93E3A"/>
<stop offset="0.323362" stop-color="#ED683C"/>
<stop offset="0.654861" stop-color="#F3903F"/>
</linearGradient>
<linearGradient id="paint1_linear" x1="41.5" y1="0" x2="41.5" y2="80" gradientUnits="userSpaceOnUse">
<stop stop-color="#E93E3A"/>
<stop offset="0.323362" stop-color="#ED683C"/>
<stop offset="0.654861" stop-color="#F3903F"/>
</linearGradient>
<linearGradient id="paint2_linear" x1="72.5" y1="49" x2="72.5" y2="59" gradientUnits="userSpaceOnUse">
<stop stop-color="#E93E3A"/>
<stop offset="0.323362" stop-color="#ED683C"/>
<stop offset="0.654861" stop-color="#F3903F"/>
</linearGradient>
</defs>
</svg>
