<svg width="83" height="69" viewBox="0 0 83 69" fill="none" xmlns="http://www.w3.org/2000/svg">
<path d="M4.86328 64.1362V0H0V69H83V64.1362H4.86328Z" fill="url(#paint0_linear)"/>
<path d="M79.8214 8H65.8139V12.7257H70.9654L63.6364 20.8323C62.9063 20.6232 62.132 20.5099 61.3296 20.5099C56.9743 20.5099 53.4312 23.8272 53.4312 27.9045C53.4312 29.3404 53.8721 30.6807 54.6314 31.8163L47.6478 40.3339C46.7184 39.9732 45.7006 39.773 44.6335 39.773C42.7091 39.773 40.9439 40.4214 39.5723 41.4961L31.4377 35.5704C31.2667 31.6334 27.794 28.4796 23.5477 28.4796C19.1925 28.4796 15.6494 31.7969 15.6494 35.8743C15.6494 37.4731 16.196 38.9539 17.1209 40.1649L5.99609 56.4544L10.2491 59L21.2172 42.94C21.9544 43.1536 22.7371 43.2689 23.5481 43.2689C26.0964 43.2689 28.3654 42.1321 29.8107 40.3727L36.9266 45.5565C36.803 46.0755 36.7355 46.6142 36.7355 47.1676C36.7355 51.245 40.2788 54.5622 44.6339 54.5622C48.9891 54.5622 52.5322 51.245 52.5322 47.1676C52.5322 45.8126 52.1392 44.5426 51.4568 43.4494L58.5332 34.8186C59.4033 35.1279 60.3455 35.299 61.3299 35.299C65.6852 35.299 69.2283 31.9817 69.2283 27.9044C69.2283 26.2997 68.6778 24.8139 67.7467 23.6007L74.8751 15.7158L74.9488 21.3068L79.9961 21.2485L79.8214 8Z" fill="url(#paint1_linear)"/>
<defs>
<linearGradient id="paint0_linear" x1="41.5" y1="0" x2="41.5" y2="69" gradientUnits="userSpaceOnUse">
<stop stop-color="#E93E3A"/>
<stop offset="0.262588" stop-color="#ED683C"/>
<stop offset="0.599612" stop-color="#F3903F"/>
</linearGradient>
<linearGradient id="paint1_linear" x1="42.9961" y1="8" x2="42.9961" y2="59" gradientUnits="userSpaceOnUse">
<stop stop-color="#E93E3A"/>
<stop offset="0.262588" stop-color="#ED683C"/>
<stop offset="0.599612" stop-color="#F3903F"/>
</linearGradient>
</defs>
</svg>
