<svg width="92" height="92" viewBox="0 0 92 92" fill="none" xmlns="http://www.w3.org/2000/svg">
<path d="M41.941 15L25.1176 10.5043L20.9836 13.8776C19.6852 11.9673 19 9.7449 19 7.45056V3.75147C19 1.68216 20.7144 0 22.8235 0C24.9325 0 26.6469 1.68216 26.6469 3.75147V5.252C26.6469 5.66456 26.9909 6.00242 27.4117 6.00242C27.8325 6.00242 28.1765 5.66487 28.1765 5.252V3.75147C28.1765 1.68216 29.891 0 32 0C34.109 0 35.8235 1.68216 35.8235 3.75147V5.252C35.8235 5.66456 36.1675 6.00242 36.5883 6.00242C37.0091 6.00242 37.3531 5.66487 37.3531 5.252V3.75147C37.3531 1.68216 39.0675 0 41.1765 0C43.2856 0 45 1.68216 45 3.75147V7.45056C45 9.7449 44.3148 11.9689 43.0164 13.8776L41.941 15Z" fill="#FFC24B"/>
<path d="M17.8833 37.421L14.9601 35.8948H10.2307V13H0V42H10.2307V38.9472H14.2703L17.1935 40.4734H19V37.4207L17.8833 37.421ZM7.30753 38.9475H2.92319V16.0525H7.30783V38.9475H7.30753Z" fill="url(#paint0_linear)"/>
<path d="M32.5108 70C32.2394 70 31.9692 69.9954 31.6962 69.9837C21.5711 69.5798 13.1848 61.085 13.0033 51.0489C12.9088 45.8727 14.8663 40.9773 18.5127 37.2665C21.7288 33.9924 23.5002 29.9077 23.5002 25.7677L31 21L34.0002 23.9698V38.8123H44.5001L46.2566 37.0245C49.9616 40.6712 52 45.5252 52 50.6971C52 56.001 49.8714 60.9457 46.0059 64.6207C42.3403 68.1067 37.5735 70 32.5108 70Z" fill="#FFC24B"/>
<path d="M45.8598 20.911C46.5614 20.1295 46.9997 19.1027 46.9997 17.9704C46.9997 15.5411 45.0326 13.5608 42.6151 13.5608H37.1753L36.158 12.2828L24.7363 9L15.7786 16.4983H9V19.4362H16.8367L25.4188 12.2519L34.4583 14.8487L37.5334 18.7104C37.9397 19.2217 38.1193 19.8622 38.0375 20.5111C37.9557 21.1604 37.6224 21.7363 37.1008 22.1283C36.158 22.8392 34.8179 22.7436 33.9819 21.905L31.0325 18.9407L22.7034 25.6378L24.5289 27.9321L30.8148 22.8777L31.914 23.9836C32.0749 24.1453 32.2545 24.2773 32.4314 24.4138C32.538 25.4861 32.9268 26.1162 33.5246 26.7816C32.823 27.5632 32.3846 28.5884 32.3846 29.7207C32.3846 30.853 32.8245 31.8785 33.5246 32.6585C32.823 33.4401 32.3846 34.4608 32.3846 35.5934C32.3846 38.0258 34.3517 40 36.7693 40H42.6154C45.0326 40 47 38.0258 47 35.5964C47 34.4638 46.5601 33.4416 45.8601 32.6601C46.5617 31.8785 47 30.8563 47 29.7222C47 28.5884 46.5601 27.5659 45.8601 26.7843C46.5617 26.0028 47 24.9791 47 23.8465C46.9997 22.7148 46.5598 21.6923 45.8598 20.911ZM42.6151 37.0624H36.769C35.9635 37.0624 35.3075 36.4028 35.3075 35.5937C35.3075 34.7842 35.9638 34.1249 36.769 34.1249H42.6151C43.4205 34.1249 44.0765 34.7845 44.0765 35.5937C44.0768 36.4031 43.4205 37.0624 42.6151 37.0624ZM42.6151 31.187H36.769C35.9635 31.187 35.3075 30.5274 35.3075 29.7182C35.3075 28.9088 35.9638 28.2495 36.769 28.2495H42.6151C43.4205 28.2495 44.0765 28.9091 44.0765 29.7182C44.0768 30.5277 43.4205 31.187 42.6151 31.187ZM42.6151 25.3116H37.2001C37.7833 25.1368 38.346 24.8635 38.8544 24.4803C39.591 23.9251 40.1347 23.1951 40.4973 22.374H42.6151C43.4205 22.374 44.0765 23.0336 44.0765 23.8428C44.0765 24.652 43.4205 25.3116 42.6151 25.3116ZM42.6151 19.4362H40.9006C40.7663 18.5108 40.414 17.6294 39.8147 16.8761L39.5138 16.4986H42.6151C43.4205 16.4986 44.0765 17.1582 44.0765 17.9674C44.0768 18.7766 43.4205 19.4362 42.6151 19.4362Z" fill="url(#paint1_linear)"/>
<path d="M81.5808 69.9382V74.3506H71.6127L67.5223 71.6562L54.9777 67.2599C53.7839 66.8452 52.5025 66.929 51.3741 67.4953C50.2442 68.0616 49.4212 69.0323 49.0535 70.2295C48.418 72.3018 49.3616 74.5447 51.2966 75.5598L54.519 77.251L49.8335 77.2656L47.9073 72.5062C47.2733 70.9471 45.7653 69.9382 44.0626 69.9382C42.7335 69.9382 41.4773 70.5765 40.7016 71.6413C39.9262 72.7092 39.7162 74.0887 40.1405 75.3331L40.5915 76.6537L37.3258 74.8902C36.2869 74.3269 35.0454 74.2182 33.9217 74.5931C32.798 74.9637 31.8735 75.7888 31.3852 76.8552C30.4297 78.9408 31.3093 81.3691 33.3874 82.3825L40.7345 85.9653L55.9853 89.0303L75.7743 89.0583L81.5808 87.9111V92H92V69.9382H81.5808ZM43.1191 73.3578C43.6193 72.6694 44.8248 72.8152 45.1418 73.6005L46.6302 77.2759L43.948 77.2847L42.9626 74.3932C42.8421 74.0386 42.8986 73.6622 43.1191 73.3578ZM75.4795 86.1169H56.4243L41.8761 83.2414L34.7048 79.7452C34.0751 79.4378 33.8073 78.7011 34.0976 78.067C34.2479 77.7389 34.5203 77.495 34.8671 77.3817C35.2108 77.2641 35.5801 77.2978 35.9001 77.4728L41.013 80.2334H55.1401L61.0136 77.3315L52.6946 72.9619C52.013 72.6031 51.6794 71.8133 51.9026 71.0823C52.0321 70.6603 52.3223 70.3161 52.7214 70.1174C53.1189 69.916 53.5712 69.8896 53.9924 70.0336L66.0281 74.2063L70.7109 77.292H81.5811V84.9108L75.4795 86.1169ZM89.023 89.0583H84.5576V72.8796H89.023V89.0583Z" fill="url(#paint2_linear)"/>
<path d="M42.2572 50.4655H39.5271V48.0616H42.2572C42.6675 48.0616 43 47.7573 43 47.3814C43 47.0054 42.6675 46.7009 42.2572 46.7009H39.5271V43.3654C39.5271 42.8785 39.4221 42.5212 39.2151 42.3035C39.0183 42.0964 38.7596 42 38.4014 42C38.0595 42 37.8106 42.0957 37.6176 42.3015C37.413 42.5194 37.3092 42.8775 37.3092 43.3656V46.7013H32.1737L29.9901 43.6741C29.8032 43.404 29.6275 43.1509 29.4569 42.908C29.3032 42.6892 29.1534 42.5111 29.0119 42.3781C28.8866 42.2604 28.7438 42.1693 28.5768 42.0992C28.4192 42.0333 28.2189 42.0002 27.9818 42.0002C27.6795 42.0002 27.4051 42.0761 27.1424 42.232C26.8823 42.3862 26.7026 42.5768 26.5928 42.8148C26.4965 43.041 26.4455 43.3876 26.4455 43.835V46.7011H23.7425C23.3323 46.7011 23 47.0056 23 47.3816C23 47.7575 23.3323 48.0618 23.7425 48.0618H26.4455V50.4659H23.7425C23.3323 50.4659 23 50.7704 23 51.1464C23 51.5222 23.3323 51.8264 23.7425 51.8264H26.4455V55.6347C26.4455 56.1072 26.5539 56.4609 26.7685 56.6857C26.9727 56.9001 27.2315 56.9996 27.5829 56.9996C27.922 56.9996 28.1788 56.8996 28.3918 56.6849C28.6099 56.4649 28.7202 56.1114 28.7202 55.6347V51.8264H33.3672L35.882 55.3593C36.0569 55.5928 36.2374 55.8285 36.4175 56.0596C36.5799 56.2672 36.7572 56.45 36.9442 56.6028C37.1126 56.741 37.2931 56.8422 37.4808 56.904C37.674 56.9677 37.8998 57 38.1504 57C38.8305 57 39.527 56.8093 39.527 55.3947V51.8264H42.2572C42.6674 51.8264 42.9999 51.5217 42.9999 51.146C43 50.7702 42.6675 50.4655 42.2572 50.4655ZM37.3091 48.0616V50.4654H34.8894L33.1556 48.0616H37.3091ZM28.7202 45.2995L29.7181 46.7009H28.7202V45.2995ZM28.7202 50.4655V48.0616H30.687L32.3984 50.4655H28.7202ZM37.3091 53.8207L35.8711 51.8264H37.3091V53.8207Z" fill="black"/>
<defs>
<linearGradient id="paint0_linear" x1="9.5" y1="13" x2="9.5" y2="42" gradientUnits="userSpaceOnUse">
<stop stop-color="#E93E3A"/>
<stop offset="0.339937" stop-color="#ED683C"/>
<stop offset="0.665911" stop-color="#F3903F"/>
<stop offset="0.98636" stop-color="#FDC70C"/>
</linearGradient>
<linearGradient id="paint1_linear" x1="28" y1="9" x2="28" y2="40" gradientUnits="userSpaceOnUse">
<stop stop-color="#E93E3A"/>
<stop offset="0.339937" stop-color="#ED683C"/>
<stop offset="0.665911" stop-color="#F3903F"/>
<stop offset="0.98636" stop-color="#FDC70C"/>
</linearGradient>
<linearGradient id="paint2_linear" x1="61.5" y1="67" x2="61.5" y2="92" gradientUnits="userSpaceOnUse">
<stop stop-color="#E93E3A"/>
<stop offset="0.339937" stop-color="#ED683C"/>
<stop offset="0.665911" stop-color="#F3903F"/>
<stop offset="0.98636" stop-color="#FDC70C"/>
</linearGradient>
</defs>
</svg>
