<svg width="79" height="80" viewBox="0 0 79 80" fill="none" xmlns="http://www.w3.org/2000/svg">
<path d="M78.3704 30.6792L68.3694 22.6622V9.36632C68.3694 8.43797 67.6094 7.6848 66.6714 7.6848H56.4823C55.5443 7.6848 54.7838 8.43797 54.7838 9.36632V11.7711L40.5683 0.373994C39.9452 -0.124665 39.0552 -0.124665 38.4321 0.373994L0.629958 30.6792C-0.099152 31.2639 -0.211939 32.3223 0.378498 33.0443C0.379114 33.0456 0.379731 33.0462 0.380347 33.0474L4.66009 38.2604C5.25053 38.98 6.318 39.0899 7.04588 38.5064L10.6304 35.6322V76.6363H5.53588V80H73.4639V76.6363H68.3694V35.6322L71.9545 38.5064C72.6818 39.0899 73.7492 38.98 74.3403 38.2604L78.6194 33.0474C79.2111 32.3266 79.1008 31.267 78.3729 30.6817C78.3723 30.6811 78.371 30.6798 78.3704 30.6792ZM58.1803 11.0485H64.9734V19.9382L58.1803 14.4945V11.0485ZM64.9728 76.6363H14.027V32.9107L39.5002 12.4877L64.9728 32.9107V76.6363ZM72.7748 34.8363L40.5683 9.01659C39.9452 8.51732 39.0552 8.51732 38.4321 9.01659L6.22555 34.8363L4.08938 32.2381L39.5002 3.84507L74.911 32.2381L72.7748 34.8363Z" fill="url(#paint0_linear)"/>
<defs>
<linearGradient id="paint0_linear" x1="39.5001" y1="80.143" x2="39.5001" y2="-11.1474" gradientUnits="userSpaceOnUse">
<stop stop-color="#E93E3A"/>
<stop offset="0.352" stop-color="#ED683C"/>
<stop offset="0.701" stop-color="#F3903F"/>
<stop offset="1" stop-color="#FDC70C"/>
</linearGradient>
</defs>
</svg>
