<svg width="82" height="81" viewBox="0 0 82 81" fill="none" xmlns="http://www.w3.org/2000/svg">
<path d="M18.448 80.4673C19.0688 81.1712 20.0794 81.1789 20.7084 80.4821L28.4734 71.8779C29.7926 70.3941 30.1937 68.1973 29.6136 66.2877L31.2839 64.476C32.1832 63.499 33.3672 62.9605 34.6188 62.9605H55.9106C59.6879 62.9605 63.2582 61.3289 65.9648 58.3663C66.0762 58.2445 65.1193 59.5122 80.4903 38.8492C82.7701 35.8155 82.4291 31.26 79.7294 28.693C77.0465 26.1499 73.0276 26.5152 70.7415 29.4968L61.2906 40.4224C60.0972 38.7704 58.2774 37.7406 56.3111 37.7406H38.4512C35.9098 36.5447 33.2132 35.9394 30.4309 35.9394C22.7185 35.9394 15.9842 39.9459 12.3701 47.4576C10.8476 47.1332 9.24174 47.6512 8.0865 48.9506L0.467321 57.5456C-0.154729 58.2474 -0.155981 59.3827 0.464818 60.0866L18.448 80.4673ZM30.4303 39.5419C32.8834 39.5419 35.2552 40.0972 37.4812 41.1924C37.684 41.2924 37.9024 41.3438 38.1233 41.3438H56.3111C58.0477 41.3438 59.5146 42.9366 59.5146 44.9462C59.5146 46.9333 58.0777 48.5494 56.3111 48.5494H43.2436C42.3594 48.5494 41.6422 49.356 41.6422 50.3506C41.6422 51.3458 42.3594 52.1518 43.2436 52.1518H56.3111C59.8438 52.1518 62.7175 48.9196 62.7175 44.9462C62.7175 44.6295 62.6974 44.3155 62.6611 44.0044C71.8035 33.4343 73.0927 31.9491 73.1478 31.8752C74.2892 30.3598 76.3156 30.1676 77.6636 31.4459C79.0128 32.729 79.1837 35.0068 78.0391 36.5307L63.6737 55.8464C61.576 58.1115 58.8218 59.3581 55.9106 59.3581H34.6188C32.5323 59.3581 30.5573 60.2555 29.0591 61.8836L27.698 63.361L15.1506 49.249C18.0831 43.0612 23.5858 39.5419 30.4303 39.5419ZM10.3532 51.4965C10.8814 50.9024 11.6924 50.7954 12.3364 51.2431C12.6136 51.4331 11.8176 50.618 26.2086 66.7818C26.8488 67.5019 26.8144 68.6492 26.2173 69.3207L19.5976 76.6558L3.86044 58.8203L10.3532 51.4965Z" fill="url(#paint0_linear)"/>
<path d="M57.2572 8.46548H54.5271V6.06162H57.2572C57.6675 6.06162 58 5.75727 58 5.38137C58 5.00543 57.6675 4.70089 57.2572 4.70089H54.5271V1.36542C54.5271 0.878526 54.4221 0.521157 54.2151 0.303463C54.0183 0.0963669 53.7596 0 53.4014 0C53.0595 0 52.8106 0.0957023 52.6176 0.301506C52.413 0.519421 52.3092 0.877455 52.3092 1.36564V4.7013H47.1737L44.9901 1.67413C44.8032 1.40397 44.6275 1.1509 44.4569 0.90799C44.3032 0.689226 44.1534 0.511114 44.0119 0.37812C43.8866 0.260375 43.7438 0.169251 43.5768 0.0992099C43.4192 0.0333038 43.2189 0.000221552 42.9818 0.000221552C42.6795 0.000221552 42.4051 0.0760966 42.1424 0.231982C41.8823 0.386169 41.7026 0.576798 41.5928 0.814799C41.4965 1.04098 41.4455 1.38757 41.4455 1.83496V4.70108H38.7425C38.3323 4.70112 38 5.00565 38 5.38155C38 5.75746 38.3323 6.06181 38.7425 6.06181H41.4455V8.46592H38.7425C38.3323 8.46592 38 8.77038 38 9.1464C38 9.52219 38.3323 9.82643 38.7425 9.82643H41.4455V13.6347C41.4455 14.1072 41.5539 14.4609 41.7685 14.6857C41.9727 14.9001 42.2315 14.9996 42.5829 14.9996C42.922 14.9996 43.1788 14.8996 43.3918 14.6849C43.6099 14.4649 43.7202 14.1114 43.7202 13.6347V9.82643H48.3672L50.882 13.3593C51.0569 13.5928 51.2374 13.8285 51.4175 14.0596C51.5799 14.2672 51.7572 14.45 51.9442 14.6028C52.1126 14.741 52.2931 14.8422 52.4808 14.904C52.674 14.9677 52.8998 15 53.1504 15C53.8305 15 54.527 14.8093 54.527 13.3947V9.82643H57.2572C57.6674 9.82643 57.9999 9.52175 57.9999 9.14595C58 8.77016 57.6675 8.46548 57.2572 8.46548ZM52.3091 6.06159V8.46544H49.8894L48.1556 6.06159H52.3091ZM43.7202 3.29948L44.7181 4.70089H43.7202V3.29948ZM43.7202 8.46548V6.06162H45.687L47.3984 8.46548H43.7202ZM52.3091 11.8207L50.8711 9.82643H52.3091V11.8207Z" fill="url(#paint1_linear)"/>
<defs>
<linearGradient id="paint0_linear" x1="41" y1="27" x2="41" y2="81" gradientUnits="userSpaceOnUse">
<stop stop-color="#E93E3A"/>
<stop offset="0.323362" stop-color="#ED683C"/>
<stop offset="0.654861" stop-color="#F3903F"/>
</linearGradient>
<linearGradient id="paint1_linear" x1="48" y1="0" x2="48" y2="15" gradientUnits="userSpaceOnUse">
<stop stop-color="#E93E3A"/>
<stop offset="0.323362" stop-color="#ED683C"/>
<stop offset="0.654861" stop-color="#F3903F"/>
</linearGradient>
</defs>
</svg>
