<svg width="82" height="54" viewBox="0 0 82 54" fill="none" xmlns="http://www.w3.org/2000/svg">
<path d="M18.448 53.4673C19.0688 54.1712 20.0794 54.1789 20.7084 53.4821L28.4734 44.8779C29.7926 43.3941 30.1937 41.1973 29.6136 39.2877L31.2839 37.476C32.1832 36.499 33.3672 35.9605 34.6188 35.9605H55.9106C59.6879 35.9605 63.2582 34.3289 65.9648 31.3663C66.0762 31.2445 65.1193 32.5122 80.4903 11.8492C82.7701 8.81553 82.4291 4.26005 79.7294 1.69301C77.0465 -0.850094 73.0276 -0.484783 70.7415 2.49684L61.2906 13.4224C60.0972 11.7704 58.2774 10.7406 56.3111 10.7406H38.4512C35.9098 9.54475 33.2132 8.93941 30.4309 8.93941C22.7185 8.93941 15.9842 12.9459 12.3701 20.4576C10.8476 20.1332 9.24174 20.6512 8.0865 21.9506L0.467321 30.5456C-0.154729 31.2474 -0.155981 32.3827 0.464818 33.0866L18.448 53.4673ZM30.4303 12.5419C32.8834 12.5419 35.2552 13.0972 37.4812 14.1924C37.684 14.2924 37.9024 14.3438 38.1233 14.3438H56.3111C58.0477 14.3438 59.5146 15.9366 59.5146 17.9462C59.5146 19.9333 58.0777 21.5494 56.3111 21.5494H43.2436C42.3594 21.5494 41.6422 22.356 41.6422 23.3506C41.6422 24.3458 42.3594 25.1518 43.2436 25.1518H56.3111C59.8438 25.1518 62.7175 21.9196 62.7175 17.9462C62.7175 17.6295 62.6974 17.3155 62.6611 17.0044C71.8035 6.43432 73.0927 4.94914 73.1478 4.87523C74.2892 3.35979 76.3156 3.16763 77.6636 4.44587C79.0128 5.72903 79.1837 8.00678 78.0391 9.53067L63.6737 28.8464C61.576 31.1115 58.8218 32.3581 55.9106 32.3581H34.6188C32.5323 32.3581 30.5573 33.2555 29.0591 34.8836L27.698 36.361L15.1506 22.249C18.0831 16.0612 23.5858 12.5419 30.4303 12.5419ZM10.3532 24.4965C10.8814 23.9024 11.6924 23.7954 12.3364 24.2431C12.6136 24.4331 11.8176 23.618 26.2086 39.7818C26.8488 40.5019 26.8144 41.6492 26.2173 42.3207L19.5976 49.6558L3.86044 31.8203L10.3532 24.4965Z" fill="url(#paint0_linear)"/>
<defs>
<linearGradient id="paint0_linear" x1="41" y1="0" x2="41" y2="54" gradientUnits="userSpaceOnUse">
<stop stop-color="#E93E3A"/>
<stop offset="0.323362" stop-color="#ED683C"/>
<stop offset="0.654861" stop-color="#F3903F"/>
</linearGradient>
</defs>
</svg>
