<svg width="20" height="15" viewBox="0 0 20 15" fill="none" xmlns="http://www.w3.org/2000/svg">
<path d="M19.2572 8.46548H16.5271V6.06162H19.2572C19.6675 6.06162 20 5.75727 20 5.38137C20 5.00543 19.6675 4.70089 19.2572 4.70089H16.5271V1.36542C16.5271 0.878526 16.4221 0.521156 16.2151 0.303463C16.0183 0.0963669 15.7596 0 15.4014 0C15.0595 0 14.8106 0.0957023 14.6176 0.301506C14.413 0.519421 14.3092 0.877455 14.3092 1.36564V4.7013H9.17366L6.9901 1.67413C6.80322 1.40397 6.62751 1.1509 6.45687 0.90799C6.30324 0.689226 6.1534 0.511114 6.01187 0.37812C5.88657 0.260375 5.74378 0.169251 5.57677 0.0992099C5.41919 0.0333038 5.21886 0.000221552 4.98184 0.000221552C4.67954 0.000221552 4.40513 0.0760966 4.14237 0.231982C3.88234 0.386169 3.7026 0.576798 3.59282 0.814799C3.49646 1.04098 3.44548 1.38757 3.44548 1.83496V4.70108H0.742471C0.332324 4.70112 0 5.00565 0 5.38155C0 5.75746 0.332324 6.06181 0.742511 6.06181H3.44552V8.46592H0.742511C0.332324 8.46592 0 8.77038 0 9.1464C0 9.52219 0.332324 9.82643 0.742511 9.82643H3.44552V13.6347C3.44552 14.1072 3.55389 14.4609 3.76853 14.6857C3.97266 14.9001 4.23147 14.9996 4.58294 14.9996C4.92204 14.9996 5.17884 14.8996 5.39179 14.6849C5.60986 14.4649 5.72016 14.1114 5.72016 13.6347V9.82643H10.3672L12.882 13.3593C13.0569 13.5928 13.2374 13.8285 13.4175 14.0596C13.5799 14.2672 13.7572 14.45 13.9442 14.6028C14.1126 14.741 14.2931 14.8422 14.4808 14.904C14.674 14.9677 14.8998 15 15.1504 15C15.8305 15 16.527 14.8093 16.527 13.3947V9.82643H19.2572C19.6674 9.82643 19.9999 9.52175 19.9999 9.14595C20 8.77016 19.6675 8.46548 19.2572 8.46548ZM14.3091 6.06159V8.46544H11.8894L10.1556 6.06159H14.3091ZM5.7202 3.29948L6.71806 4.70089H5.7202V3.29948ZM5.7202 8.46548V6.06162H7.68699L9.39842 8.46548H5.7202ZM14.3091 11.8207L12.8711 9.82643H14.3091V11.8207Z" fill="url(#paint0_linear)"/>
<defs>
<linearGradient id="paint0_linear" x1="10" y1="0" x2="10" y2="15" gradientUnits="userSpaceOnUse">
<stop stop-color="#E93E3A"/>
<stop offset="0.323362" stop-color="#ED683C"/>
<stop offset="0.654861" stop-color="#F3903F"/>
</linearGradient>
</defs>
</svg>
